<svg aria-hidden="true" style="position: absolute; width: 0; height: 0; overflow: hidden;" version="1.1"
    xmlns="http://www.w3.org/2000/svg" xmlns:xlink="http://www.w3.org/1999/xlink">
    <defs>
        <symbol id="icon-apple" viewBox="0 0 32 32">
            <path fill="#efede8" style="fill: var(--color1, #efede8)"
                d="M19.454 4.758c0.102-0.031 0.198-0.082 0.28-0.151s0.15-0.153 0.199-0.248 0.079-0.199 0.087-0.306c0.008-0.107-0.005-0.214-0.039-0.315s-0.088-0.195-0.159-0.275c-0.071-0.080-0.157-0.146-0.253-0.192s-0.201-0.073-0.308-0.078c-0.107-0.005-0.214 0.011-0.314 0.048-1.501 0.499-2.435 1.731-2.986 3.051-0.074 0.178-0.142 0.359-0.203 0.542-0.3-0.568-0.683-1.087-1.138-1.541-0.615-0.616-1.35-1.1-2.159-1.422s-1.675-0.475-2.546-0.45c-0.928 0.026-1.669 0.768-1.694 1.694-0.025 0.87 0.128 1.737 0.45 2.546s0.806 1.543 1.422 2.159l0.050 0.048c-1.344 0.291-2.559 1.007-3.464 2.042s-1.454 2.334-1.563 3.705l-0.010 0.118c-0.211 2.636 0.35 5.275 1.616 7.597l0.576 1.053c0.016 0.027 0.032 0.054 0.051 0.080l1.6 2.243c0.363 0.508 0.832 0.931 1.374 1.239s1.146 0.495 1.768 0.546c0.622 0.051 1.248-0.033 1.833-0.248s1.118-0.555 1.559-0.996c0.068-0.068 0.148-0.122 0.237-0.158s0.183-0.056 0.279-0.056c0.096 0 0.191 0.019 0.279 0.056s0.169 0.090 0.237 0.158c0.441 0.441 0.973 0.781 1.559 0.996s1.212 0.3 1.833 0.248c0.622-0.052 1.225-0.238 1.768-0.546s1.012-0.731 1.374-1.239l1.6-2.242c0.019-0.026 0.036-0.053 0.051-0.082l0.574-1.053c1.266-2.321 1.827-4.961 1.616-7.597l-0.008-0.118c-0.071-0.884-0.324-1.743-0.745-2.523s-0.998-1.465-1.697-2.010-1.503-0.94-2.362-1.158c-0.859-0.218-1.754-0.256-2.628-0.11l-2.651 0.442c0.016-1.090 0.208-2.315 0.638-3.349 0.448-1.080 1.114-1.848 2.013-2.149h0.002zM11.054 14.358c-0.246 0.078-0.473 0.203-0.67 0.369s-0.359 0.37-0.477 0.599c-0.296 0.557-0.499 1.475-0.312 2.974 0.021 0.208-0.040 0.416-0.17 0.579s-0.319 0.269-0.526 0.295c-0.207 0.026-0.416-0.030-0.583-0.157s-0.277-0.313-0.308-0.519c-0.213-1.702-0.016-2.984 0.488-3.926 0.512-0.96 1.291-1.478 2.053-1.733 0.1-0.033 0.205-0.046 0.31-0.039s0.207 0.036 0.301 0.083c0.094 0.047 0.178 0.112 0.247 0.191s0.121 0.172 0.155 0.271c0.033 0.1 0.046 0.205 0.039 0.31s-0.036 0.207-0.083 0.301c-0.047 0.094-0.112 0.178-0.191 0.247s-0.172 0.121-0.271 0.155z">
            </path>
        </symbol>
        <symbol id="icon-dumbbell" viewBox="0 0 32 32">
            <path fill="#efede8" style="fill: var(--color1, #efede8)"
                d="M5.2 8h-2.4c-0.665 0-1.2 0.535-1.2 1.2v5.2h-1.2c-0.22 0-0.4 0.18-0.4 0.4v2.4c0 0.22 0.18 0.4 0.4 0.4h1.2v5.2c0 0.665 0.535 1.2 1.2 1.2h2.4c0.665 0 1.2-0.535 1.2-1.2v-13.6c0-0.665-0.535-1.2-1.2-1.2zM31.6 14.4h-1.2v-5.2c0-0.665-0.535-1.2-1.2-1.2h-2.4c-0.665 0-1.2 0.535-1.2 1.2v13.6c0 0.665 0.535 1.2 1.2 1.2h2.4c0.665 0 1.2-0.535 1.2-1.2v-5.2h1.2c0.22 0 0.4-0.18 0.4-0.4v-2.4c0-0.22-0.18-0.4-0.4-0.4zM22.8 4.8h-2.4c-0.665 0-1.2 0.535-1.2 1.2v8.4h-6.4v-8.4c0-0.665-0.535-1.2-1.2-1.2h-2.4c-0.665 0-1.2 0.535-1.2 1.2v20c0 0.665 0.535 1.2 1.2 1.2h2.4c0.665 0 1.2-0.535 1.2-1.2v-8.4h6.4v8.4c0 0.665 0.535 1.2 1.2 1.2h2.4c0.665 0 1.2-0.535 1.2-1.2v-20c0-0.665-0.535-1.2-1.2-1.2z">
            </path>
        </symbol>
        <symbol id="icon-eye" viewBox="0 0 32 32">
            <path fill="none" stroke="#efede8" style="stroke: var(--color1, #efede8)" stroke-linejoin="round"
                stroke-linecap="round" stroke-miterlimit="4" stroke-width="2.88"
                d="M1.333 16c0 0 5.333-10.667 14.667-10.667s14.667 10.667 14.667 10.667-5.333 10.667-14.667 10.667c-9.333 0-14.667-10.667-14.667-10.667z">
            </path>
            <path fill="none" stroke="#efede8" style="stroke: var(--color1, #efede8)" stroke-linejoin="round"
                stroke-linecap="round" stroke-miterlimit="4" stroke-width="2.88"
                d="M16 20c2.209 0 4-1.791 4-4s-1.791-4-4-4c-2.209 0-4 1.791-4 4s1.791 4 4 4z"></path>
        </symbol>
        <symbol id="icon-fier" viewBox="0 0 32 32">
            <path fill="#efede8" style="fill: var(--color1, #efede8)"
                d="M16.001 22.291c-0.946 0.72-2.898 2.5-2.898 4.925 0 1.601 1.3 2.904 2.897 2.904s2.897-1.303 2.897-2.904c0-2.297-1.954-4.161-2.895-4.925z">
            </path>
            <path fill="#efede8" style="fill: var(--color1, #efede8)"
                d="M22.789 5.57c-0.351-0.397-0.958-0.421-1.34-0.064l-4.412 4.117v-8.623c0-0.722-0.87-1.261-1.522-0.867-0.123 0.075-3.055 1.865-6.017 5.116-3.602 3.953-6.055 8.766-6.055 14.164 0 6.941 5.633 12.587 12.557 12.587-2.631 0-4.772-2.146-4.772-4.784 0-4.262 4.138-6.786 4.314-6.891 0.309-0.184 0.695-0.176 0.996 0.022 0.173 0.114 4.234 2.838 4.234 6.869 0 2.638-2.141 4.784-4.772 4.784 6.924 0 12.557-5.647 12.557-12.587 0-5.241-2.313-9.938-5.767-13.843z">
            </path>
        </symbol>
        <symbol id="icon-fluent_food" viewBox="0 0 32 32">
            <path fill="#efede8" style="fill: var(--color1, #efede8)"
                d="M24 4c0.327 0 0.642 0.12 0.886 0.337s0.4 0.516 0.438 0.84l0.009 0.156v21.333c-0 0.34-0.131 0.667-0.364 0.914s-0.552 0.396-0.891 0.416c-0.339 0.020-0.673-0.090-0.934-0.308s-0.428-0.528-0.468-0.865l-0.009-0.156v-6.667h-1.333c-0.327 0-0.642-0.12-0.886-0.337s-0.4-0.516-0.438-0.84l-0.009-0.156v-8c0-2.947 2-6.667 4-6.667zM16 4c0.327 0 0.642 0.12 0.886 0.337s0.4 0.516 0.438 0.84l0.009 0.156v6.667c-0 1.183-0.393 2.331-1.117 3.266s-1.738 1.603-2.883 1.899v9.501c-0 0.34-0.13 0.667-0.364 0.914s-0.552 0.396-0.891 0.416c-0.339 0.020-0.673-0.090-0.934-0.308s-0.428-0.528-0.468-0.865l-0.009-0.156v-9.501c-1.099-0.284-2.079-0.912-2.798-1.791s-1.137-1.965-1.196-3.099l-0.007-0.275v-6.667c0-0.34 0.13-0.667 0.364-0.914s0.552-0.396 0.891-0.416c0.339-0.020 0.673 0.090 0.934 0.309s0.428 0.528 0.468 0.865l0.009 0.156v6.667c0 0.468 0.123 0.928 0.357 1.333s0.571 0.742 0.976 0.976v-8.976c0-0.34 0.13-0.667 0.364-0.914s0.552-0.396 0.891-0.416c0.339-0.020 0.673 0.090 0.934 0.309s0.428 0.528 0.468 0.865l0.009 0.156 0.001 8.976c0.372-0.215 0.687-0.517 0.917-0.88s0.37-0.776 0.406-1.204l0.009-0.225v-6.667c0-0.354 0.14-0.693 0.391-0.943s0.589-0.391 0.943-0.391z">
            </path>
        </symbol>
        <symbol id="icon-next" viewBox="0 0 32 32">
            <path fill="none" stroke="#e6533c" style="stroke: var(--color2, #e6533c)" stroke-linejoin="round"
                stroke-linecap="round" stroke-miterlimit="4" stroke-width="2.4"
                d="M18.133 22.667l6.667-6.667M24.8 16l-6.667-6.667M24.8 16h-16"></path>
        </symbol>
        <symbol id="icon-normal" viewBox="0 0 32 32">
            <path fill="none" stroke="#efede8" style="stroke: var(--color1, #efede8)" stroke-linejoin="round"
                stroke-linecap="round" stroke-miterlimit="4" stroke-width="2.6667"
                d="M25.333 5.333h-18.667c-1.473 0-2.667 1.194-2.667 2.667v18.667c0 1.473 1.194 2.667 2.667 2.667h18.667c1.473 0 2.667-1.194 2.667-2.667v-18.667c0-1.473-1.194-2.667-2.667-2.667z">
            </path>
            <path fill="none" stroke="#efede8" style="stroke: var(--color1, #efede8)" stroke-linejoin="round"
                stroke-linecap="round" stroke-miterlimit="4" stroke-width="2.6667" d="M21.333 2.667v5.333"></path>
            <path fill="none" stroke="#efede8" style="stroke: var(--color1, #efede8)" stroke-linejoin="round"
                stroke-linecap="round" stroke-miterlimit="4" stroke-width="2.6667" d="M10.667 2.667v5.333"></path>
            <path fill="none" stroke="#efede8" style="stroke: var(--color1, #efede8)" stroke-linejoin="round"
                stroke-linecap="round" stroke-miterlimit="4" stroke-width="2.6667" d="M4 13.333h24"></path>
        </symbol>
        <symbol id="icon-running-stick-figure" viewBox="0 0 32 32">
            <path fill="#efede8" style="fill: var(--color1, #efede8)"
                d="M29.647 9.451c-0.419-0.501-1.166-0.567-1.667-0.149l-3.282 2.757-1.509-3.739c-0.054-0.14-0.135-0.258-0.229-0.362-0.308-0.686-0.844-1.275-1.582-1.617-0.32-0.146-0.652-0.224-0.982-0.262-0.073-0.038-0.139-0.088-0.222-0.114l-5.775-1.61c-0.324-0.088-0.65-0.031-0.917 0.125-0.317 0.107-0.589 0.338-0.719 0.672l-2.175 5.592c-0.236 0.608 0.066 1.294 0.676 1.534 0.607 0.236 1.294-0.068 1.532-0.678l1.837-4.722 2.63 0.731c-0.064 0.104-0.133 0.201-0.185 0.312l-3.372 7.309c-0.049 0.107-0.075 0.217-0.109 0.328l-4.098 6.871-6.859 2.294c-0.776 0.58-0.941 1.674-0.367 2.45 0.577 0.778 1.674 0.943 2.448 0.369l7.018-2.417c0.215-0.156 0.371-0.36 0.489-0.58 0.088-0.094 0.189-0.168 0.256-0.284l2.443-4.096 4.337 3.696-4.641 5.23c-0.639 0.721-0.575 1.832 0.149 2.469 0.723 0.643 1.83 0.575 2.473-0.149l5.791-6.524c0.18-0.201 0.288-0.433 0.36-0.676 0.043-0.132 0.043-0.269 0.054-0.406 0-0.069 0.026-0.132 0.021-0.196-0.016-0.478-0.21-0.943-0.601-1.274l-3.991-3.403c0.288-0.274 0.532-0.6 0.709-0.983l2.585-5.599 0.828 2.206c0.035 0.196 0.1 0.388 0.239 0.549 0.125 0.149 0.284 0.248 0.454 0.317 0.017 0.009 0.038 0.010 0.059 0.016 0.107 0.038 0.216 0.075 0.329 0.080 0.133 0.012 0.269-0.005 0.405-0.043 0.004-0.002 0.005-0.002 0.005-0.002 0.036-0.009 0.073-0.002 0.109-0.017 0.192-0.073 0.34-0.196 0.466-0.34l4.71-3.998c0.501-0.421 0.289-1.166-0.132-1.667z">
            </path>
            <path fill="#efede8" style="fill: var(--color1, #efede8)"
                d="M23.689 6.602c1.823 0 3.301-1.478 3.301-3.301s-1.478-3.301-3.301-3.301c-1.823 0-3.301 1.478-3.301 3.301s1.478 3.301 3.301 3.301z">
            </path>
        </symbol>
        <symbol id="icon-Vector" viewBox="0 0 89 32">
            <path
                d="M86.33 13.714c1.263 0 2.286 1.023 2.286 2.286s-1.023 2.286-2.286 2.286h-1.582c-1.359 0-2.462 1.102-2.462 2.462v4.22c0 1.359-1.102 2.462-2.462 2.462h-1.583c-1.262 0-2.286 1.023-2.286 2.286s-1.023 2.286-2.286 2.286h-4.747c-1.359 0-2.462-1.102-2.462-2.462v-8.791c0-1.359-1.102-2.462-2.462-2.462h-39.385c-1.359 0-2.462 1.102-2.462 2.462v8.791c0 1.36-1.102 2.462-2.462 2.462h-4.747c-1.262 0-2.286-1.023-2.286-2.286s-1.023-2.286-2.286-2.286h-1.582c-1.359 0-2.462-1.102-2.462-2.462v-4.22c0-1.359-1.102-2.462-2.462-2.462h-1.582c-1.262 0-2.286-1.023-2.286-2.286s1.023-2.286 2.286-2.286h1.582c1.359 0 2.462-1.102 2.462-2.462v-4.22c0-1.359 1.102-2.462 2.462-2.462h1.582c1.262 0 2.286-1.023 2.286-2.286s1.023-2.286 2.286-2.286h4.747c1.359 0 2.462 1.102 2.462 2.462v8.791c0 1.359 1.102 2.462 2.462 2.462h39.385c1.359 0 2.462-1.102 2.462-2.462v-8.791c0-1.359 1.102-2.462 2.462-2.462h4.747c1.262 0 2.286 1.023 2.286 2.286s1.023 2.286 2.286 2.286h1.583c1.359 0 2.462 1.102 2.462 2.462v4.22c0 1.359 1.102 2.462 2.462 2.462h1.582z">
            </path>
        </symbol>
        <symbol id="icon-calendar" viewBox="0 0 20 20">
            <path d="M15.8333 3.33337H4.16667C3.24619 3.33337 2.5 4.07957 2.5 5.00004V16.6667C2.5 17.5872 3.24619 18.3334 4.16667 18.3334H15.8333C16.7538 18.3334 17.5 17.5872 17.5 16.6667V5.00004C17.5 4.07957 16.7538 3.33337 15.8333 3.33337Z" stroke="#EF8964" stroke-width="1.8" stroke-linecap="round" stroke-linejoin="round"/>
            <path d="M13.332 1.66663V4.99996" stroke="#EF8964" stroke-width="1.8" stroke-linecap="round" stroke-linejoin="round"/>
            <path d="M6.66797 1.66663V4.99996" stroke="#EF8964" stroke-width="1.8" stroke-linecap="round" stroke-linejoin="round"/>
            <path d="M2.5 8.33337H17.5" stroke="#EF8964" stroke-width="1.8" stroke-linecap="round" stroke-linejoin="round"/>
        </symbol>
        <symbol id="icon-left" viewBox="0 0 16 16">
            <path fill-rule="evenodd" clip-rule="evenodd" d="M10.5428 0.542847L11.957 1.95706L6.16414 7.74995L11.957 13.5428L10.5428 14.9571L3.33571 7.74995L10.5428 0.542847Z" fill="#EFEDE8" fill-opacity="0.2"/>
        </symbol>
        <symbol id="icon-right" viewBox="0 0 16 16">
            <path fill-rule="evenodd" clip-rule="evenodd" d="M5.45718 14.9572L4.04297 13.5429L9.83586 7.75005L4.04297 1.95715L5.45718 0.542938L12.6643 7.75005L5.45718 14.9572Z" fill="#EFEDE8"/>
        </symbol>
        <symbol id="icon-food" viewBox="0 0 20 20">
            <path d="M14.9974 2.5C15.2015 2.50003 15.3985 2.57496 15.551 2.7106C15.7036 2.84623 15.801 3.03312 15.8249 3.23583L15.8307 3.33333V16.6667C15.8305 16.8791 15.7492 17.0834 15.6034 17.2378C15.4575 17.3923 15.2583 17.4852 15.0462 17.4976C14.8342 17.5101 14.6254 17.4411 14.4625 17.3048C14.2997 17.1685 14.195 16.9751 14.1699 16.7642L14.1641 16.6667V12.5H13.3307C13.1266 12.5 12.9296 12.425 12.7771 12.2894C12.6246 12.1538 12.5271 11.9669 12.5032 11.7642L12.4974 11.6667V6.66667C12.4974 4.825 13.7474 2.5 14.9974 2.5ZM9.9974 2.5C10.2015 2.50003 10.3985 2.57496 10.551 2.7106C10.7036 2.84623 10.801 3.03312 10.8249 3.23583L10.8307 3.33333V7.5C10.8306 8.23906 10.585 8.95715 10.1325 9.54148C9.68003 10.1258 9.04625 10.5433 8.33073 10.7283V16.6667C8.33049 16.8791 8.24916 17.0834 8.10336 17.2378C7.95755 17.3923 7.75827 17.4852 7.54623 17.4976C7.3342 17.5101 7.12541 17.4411 6.96254 17.3048C6.79966 17.1685 6.69498 16.9751 6.6699 16.7642L6.66406 16.6667V10.7283C5.97694 10.5507 5.3644 10.1585 4.91553 9.60876C4.46666 9.05903 4.20487 8.38043 4.16823 7.67167L4.16406 7.5V3.33333C4.1643 3.12093 4.24563 2.91664 4.39144 2.76219C4.53724 2.60775 4.73652 2.5148 4.94856 2.50236C5.16059 2.48991 5.36938 2.5589 5.53226 2.69522C5.69513 2.83155 5.79981 3.02492 5.8249 3.23583L5.83073 3.33333V7.5C5.83074 7.79255 5.90775 8.07995 6.05403 8.33331C6.20031 8.58667 6.4107 8.79706 6.66406 8.94333V3.33333C6.6643 3.12093 6.74563 2.91664 6.89144 2.76219C7.03724 2.60775 7.23652 2.5148 7.44856 2.50236C7.66059 2.48991 7.86938 2.5589 8.03226 2.69522C8.19513 2.83155 8.29981 3.02492 8.3249 3.23583L8.33073 3.33333L8.33156 8.94333C8.56412 8.80891 8.76073 8.62027 8.90467 8.39349C9.0486 8.1667 9.13559 7.90848 9.15823 7.64083L9.16406 7.5V3.33333C9.16406 3.11232 9.25186 2.90036 9.40814 2.74408C9.56442 2.5878 9.77638 2.5 9.9974 2.5Z" fill="#EF8964"/>
        </symbol>
        <symbol id="icon-dumbbell" viewBox="0 0 20 20">
            <path d="M3.25 5H1.75C1.33438 5 1 5.33437 1 5.75V9H0.25C0.1125 9 0 9.1125 0 9.25V10.75C0 10.8875 0.1125 11 0.25 11H1V14.25C1 14.6656 1.33438 15 1.75 15H3.25C3.66563 15 4 14.6656 4 14.25V5.75C4 5.33437 3.66563 5 3.25 5ZM19.75 9H19V5.75C19 5.33437 18.6656 5 18.25 5H16.75C16.3344 5 16 5.33437 16 5.75V14.25C16 14.6656 16.3344 15 16.75 15H18.25C18.6656 15 19 14.6656 19 14.25V11H19.75C19.8875 11 20 10.8875 20 10.75V9.25C20 9.1125 19.8875 9 19.75 9ZM14.25 3H12.75C12.3344 3 12 3.33437 12 3.75V9H8V3.75C8 3.33437 7.66563 3 7.25 3H5.75C5.33437 3 5 3.33437 5 3.75V16.25C5 16.6656 5.33437 17 5.75 17H7.25C7.66563 17 8 16.6656 8 16.25V11H12V16.25C12 16.6656 12.3344 17 12.75 17H14.25C14.6656 17 15 16.6656 15 16.25V3.75C15 3.33437 14.6656 3 14.25 3Z" fill="#EF8964"/>
        </symbol>
        <symbol id="icon-food-apple" viewBox="0 0 20 20">
            <path d="M12.1582 2.97399C12.2222 2.9546 12.2817 2.92257 12.3331 2.8798C12.3844 2.83703 12.4267 2.7844 12.4574 2.725C12.4881 2.6656 12.5066 2.60065 12.5117 2.534C12.5169 2.46734 12.5086 2.40032 12.4874 2.33692C12.4662 2.27351 12.4325 2.215 12.3883 2.16485C12.3441 2.1147 12.2903 2.07392 12.23 2.04493C12.1698 2.01594 12.1043 1.99933 12.0375 1.99608C11.9708 1.99282 11.904 2.00299 11.8412 2.02599C10.9032 2.33799 10.3192 3.10799 9.97524 3.93299C9.92905 4.04451 9.88669 4.15757 9.84824 4.27199C9.66091 3.91713 9.42122 3.59249 9.13724 3.30899C8.75287 2.92379 8.29377 2.62129 7.78818 2.42009C7.28258 2.21888 6.74117 2.12322 6.19724 2.13899C5.61724 2.15499 5.15424 2.61899 5.13824 3.19799C5.12247 3.74192 5.21813 4.28333 5.41934 4.78893C5.62054 5.29452 5.92304 5.75362 6.30824 6.13799L6.33924 6.16799C5.49923 6.34995 4.74012 6.7975 4.17425 7.44442C3.60838 8.09133 3.26581 8.90324 3.19724 9.75999L3.19124 9.83399C3.05922 11.4812 3.4102 13.1311 4.20124 14.582L4.56124 15.24C4.57124 15.257 4.58124 15.274 4.59324 15.29L5.59324 16.692C5.81988 17.0094 6.11296 17.2736 6.45207 17.4663C6.79119 17.6589 7.16821 17.7754 7.5569 17.8076C7.94559 17.8397 8.33662 17.7868 8.7028 17.6525C9.06897 17.5183 9.40149 17.3058 9.67724 17.03C9.71958 16.9876 9.76986 16.954 9.82519 16.9311C9.88053 16.9082 9.93984 16.8964 9.99974 16.8964C10.0596 16.8964 10.1189 16.9082 10.1743 16.9311C10.2296 16.954 10.2799 16.9876 10.3222 17.03C10.598 17.3058 10.9305 17.5183 11.2967 17.6525C11.6629 17.7868 12.0539 17.8397 12.4426 17.8076C12.8313 17.7754 13.2083 17.6589 13.5474 17.4663C13.8865 17.2736 14.1796 17.0094 14.4062 16.692L15.4062 15.291C15.4179 15.2746 15.4286 15.2576 15.4382 15.24L15.7972 14.582C16.5883 13.1311 16.9393 11.4812 16.8072 9.83399L16.8022 9.75999C16.758 9.20777 16.5995 8.67077 16.3368 8.18301C16.0742 7.69525 15.7131 7.26737 15.2764 6.92648C14.8397 6.58559 14.3369 6.33913 13.8 6.20271C13.2631 6.06629 12.7037 6.04289 12.1572 6.13399L10.5002 6.40999C10.5102 5.72899 10.6302 4.96299 10.8992 4.31699C11.1792 3.64199 11.5952 3.16199 12.1572 2.97399H12.1582ZM6.90824 8.97399C6.75471 9.02253 6.61232 9.10098 6.48926 9.20481C6.3662 9.30865 6.26491 9.43582 6.19124 9.57899C6.00624 9.92699 5.87924 10.501 5.99624 11.438C6.00936 11.5679 5.97115 11.6978 5.88979 11.7999C5.80842 11.902 5.69034 11.9682 5.56079 11.9844C5.43124 12.0006 5.30049 11.9655 5.19649 11.8865C5.09249 11.8076 5.02349 11.6911 5.00424 11.562C4.87124 10.498 4.99424 9.69699 5.30924 9.10799C5.62924 8.50799 6.11624 8.18399 6.59224 8.02499C6.65455 8.00424 6.72034 7.99597 6.78585 8.00064C6.85136 8.00532 6.9153 8.02285 6.97404 8.05224C7.03277 8.08163 7.08514 8.1223 7.12815 8.17193C7.17117 8.22156 7.20399 8.27918 7.22474 8.34149C7.24549 8.4038 7.25376 8.46959 7.24908 8.5351C7.24441 8.60061 7.22687 8.66455 7.19748 8.72329C7.16809 8.78202 7.12742 8.83439 7.07779 8.8774C7.02816 8.92042 6.97055 8.95324 6.90824 8.97399Z" fill="#EF8964"/>
        </symbol>
        <symbol id="icon-calories" viewBox="0 0 20 20">
            <path d="M9.99898 13.9321C9.40789 14.382 8.1875 15.4946 8.1875 17.0105C8.1875 18.0112 8.99969 18.8254 9.99805 18.8254C10.9964 18.8254 11.8086 18.0112 11.8086 17.0105C11.8086 15.5749 10.5875 14.41 9.99898 13.9321Z" fill="#EF8964"/>
            <path d="M14.2437 3.48096C14.0241 3.23264 13.6452 3.2176 13.4061 3.4408L10.6488 6.0142V0.624943C10.6488 0.173811 10.1049 -0.163259 9.69754 0.0831466C9.62043 0.129787 7.78809 1.24869 5.93664 3.28061C3.68551 5.75123 2.15234 8.75939 2.15234 12.133C2.15234 16.4709 5.67293 20 10.0003 20C8.35574 20 7.01785 18.6588 7.01785 17.0103C7.01785 14.3466 9.6041 12.7693 9.71418 12.7034C9.90715 12.5881 10.1488 12.5935 10.3364 12.7171C10.4445 12.7883 12.9827 14.4908 12.9827 17.0103C12.9827 18.6588 11.6448 20 10.0003 20C14.3276 20 17.8482 16.4709 17.8482 12.133C17.8482 8.85744 16.4028 5.92154 14.2437 3.48096Z" fill="#EF8964"/>
        </symbol>
        <symbol id="icon-bubble" viewBox="0 0 20 20">
            <path d="M12.9938 10.2163C15.3548 10.2163 17.2688 8.30228 17.2688 5.94126C17.2688 3.58025 15.3548 1.66626 12.9938 1.66626C10.6327 1.66626 8.71875 3.58025 8.71875 5.94126C8.71875 8.30228 10.6327 10.2163 12.9938 10.2163Z" fill="#EF8964"/>
            <path d="M5.29712 16.1994C6.71465 16.1994 7.8638 15.0502 7.8638 13.6327C7.8638 12.2152 6.71465 11.066 5.29712 11.066C3.87959 11.066 2.73047 12.2152 2.73047 13.6327C2.73047 15.0502 3.87959 16.1994 5.29712 16.1994Z" fill="#EF8964"/>
            <path d="M13.8443 18.3328C15.0225 18.3328 15.9776 17.3777 15.9776 16.1995C15.9776 15.0213 15.0225 14.0662 13.8443 14.0662C12.6661 14.0662 11.7109 15.0213 11.7109 16.1995C11.7109 17.3777 12.6661 18.3328 13.8443 18.3328Z" fill="#EF8964"/>
        </symbol>
        <symbol id="icon-figure" viewBox="0 0 20 20">
            <path d="M18.5263 5.90673C18.2643 5.59374 17.7975 5.55259 17.4845 5.81359L15.4333 7.53667L14.49 5.19953C14.4564 5.1118 14.4055 5.03816 14.347 4.97318C14.1542 4.5443 13.8196 4.17608 13.3582 3.96272C13.1579 3.87175 12.951 3.82302 12.7441 3.79919C12.6987 3.77536 12.6575 3.74396 12.6055 3.72771L8.99583 2.72159C8.79331 2.66636 8.58971 2.7021 8.42292 2.79957C8.22473 2.86672 8.0547 3.01076 7.97347 3.21978L6.61429 6.71466C6.467 7.0948 6.65544 7.52367 7.03666 7.67313C7.41572 7.82042 7.84567 7.63089 7.99405 7.24967L9.14204 4.29846L10.7861 4.75549C10.746 4.82047 10.7027 4.88112 10.6702 4.95043L8.56263 9.51858C8.53231 9.58573 8.51606 9.65396 8.4944 9.72327L5.93307 14.0174L1.64651 15.4513C1.16132 15.8141 1.05843 16.4975 1.41691 16.9827C1.77755 17.469 2.4631 17.5719 2.94721 17.2134L7.33341 15.7026C7.4677 15.6051 7.56518 15.4773 7.63882 15.3398C7.69405 15.2813 7.75687 15.2347 7.79911 15.1622L9.32615 12.6019L12.0369 14.912L9.13663 18.1805C8.737 18.6311 8.77707 19.3253 9.22976 19.7238C9.68138 20.1256 10.3734 20.0834 10.7752 19.6307L14.3947 15.5531C14.5073 15.4275 14.5744 15.2824 14.6199 15.1308C14.647 15.0484 14.647 14.9629 14.6535 14.8773C14.6535 14.834 14.6697 14.795 14.6665 14.7549C14.6567 14.456 14.5354 14.1658 14.2907 13.9589L11.7965 11.8319C11.9763 11.6608 12.129 11.4572 12.2395 11.2178L13.8553 7.71861L14.373 9.09729C14.3947 9.21967 14.4358 9.33988 14.5224 9.4406C14.6004 9.53374 14.7001 9.59547 14.8062 9.6388C14.817 9.64421 14.83 9.64529 14.843 9.64854C14.9102 9.67237 14.9784 9.69511 15.0488 9.69836C15.1322 9.70594 15.2167 9.69511 15.3022 9.67129C15.3044 9.6702 15.3055 9.6702 15.3055 9.6702C15.3282 9.66479 15.351 9.66912 15.3737 9.65937C15.4939 9.61389 15.586 9.53699 15.665 9.4471L18.6087 6.94859C18.9216 6.68542 18.7895 6.21972 18.5263 5.90673Z" fill="#EF8964"/>
            <path d="M14.8053 4.12628C15.9448 4.12628 16.8685 3.20258 16.8685 2.06314C16.8685 0.923699 15.9448 0 14.8053 0C13.6659 0 12.7422 0.923699 12.7422 2.06314C12.7422 3.20258 13.6659 4.12628 14.8053 4.12628Z" fill="#EF8964"/>
        </symbol>
        <symbol id="icon-exclamation-mark" viewBox="0 0 24 24">
            <path d="M12 19V19.01M12 15V5" stroke="#EFEDE8" stroke-width="2" stroke-linecap="round" stroke-linejoin="round"/>
        </symbol>
        <symbol id="icon-arrow" viewBox="0 0 16 16">
            <path d="M7.5 14L14 7.5M14 7.5L7.5 1M14 7.5H1" stroke="#E6533C" stroke-width="1.3" stroke-linecap="round" stroke-linejoin="round"/>
        </symbol>
        <symbol id="icon-trash" viewBox="0 0 20 20">
            <path d="M7.5 2.5H12.5M8.33333 8.75V12.9167M11.6667 8.75V12.9167" stroke="#EF8964" stroke-width="1.5" stroke-linecap="round" stroke-linejoin="round"/>
            <path d="M2.5 5H17.5M15.8333 5L15.2489 13.7661C15.1612 15.0813 15.1174 15.7389 14.8333 16.2375C14.5833 16.6765 14.206 17.0294 13.7514 17.2497C13.235 17.5 12.5759 17.5 11.2578 17.5H8.74221C7.42409 17.5 6.76503 17.5 6.24861 17.2497C5.79396 17.0294 5.41674 16.6765 5.16665 16.2375C4.88259 15.7389 4.83875 15.0813 4.75107 13.7661L4.16667 5" stroke="#EF8964" stroke-width="1.5" stroke-linecap="round" stroke-linejoin="round"/>
        </symbol>
    </defs>
</svg>